<?xml version="1.0" encoding="utf-8"?>
<!-- Generator: Adobe Illustrator 27.8.1, SVG Export Plug-In . SVG Version: 6.00 Build 0)  -->
<svg version="1.1" id="Layer_1" xmlns="http://www.w3.org/2000/svg" xmlns:xlink="http://www.w3.org/1999/xlink" x="0px" y="0px"
	 viewBox="0 0 122.9 119.3" style="enable-background:new 0 0 122.9 119.3;" xml:space="preserve">
<style type="text/css">
	.st0{fill:#FFFFFF;}
</style>
<path class="st0" d="M57.5,29.2v-5.7c-0.7-0.3-1.4-0.6-2-0.9c-5.2-3.1-7.3-9.5-5.1-15.1c0.6-1.5,1.5-2.8,2.6-4
	c1.1-1.1,2.5-2,3.9-2.6C58.5,0.3,60.1,0,61.7,0c4.9,0,9.3,3,11.2,7.5c1.2,3,1.2,6.3,0,9.3c-0.6,1.5-1.5,2.8-2.6,3.9l-0.1,0.1
	c-0.7,0.7-1.5,1.3-2.4,1.8c-0.6,0.4-1.3,0.7-2,0.9v5.7h28.5c8.5,0,15.4,6.9,15.4,15.4v2.3h5.3c4.4,0,7.9,3.5,7.9,7.9v18.4
	c0,4.4-3.5,7.9-7.9,7.9h-5.2v2.1c0,8.5-6.9,15.4-15.4,15.4H55.2l-23.4,20.1c-1.1,0.9-2.7,0.8-3.6-0.3c0,0,0,0,0,0
	c-0.4-0.5-0.7-1.2-0.6-1.8l1.2-18h-0.2c-8.5,0-15.4-6.9-15.4-15.4v-2.1H7.9c-4.4,0-7.9-3.5-7.9-7.9V54.8c0-4.4,3.5-7.9,7.9-7.9h5.3
	v-2.3c0-8.5,6.9-15.4,15.4-15.4H57.5z M82.7,47.3c5.2,0,9.4,4.2,9.4,9.4S87.9,66,82.7,66s-9.4-4.2-9.4-9.4S77.6,47.3,82.7,47.3
	L82.7,47.3z M40.2,47.3c5.2,0,9.4,4.2,9.4,9.4S45.3,66,40.2,66s-9.4-4.2-9.4-9.4S35,47.3,40.2,47.3L40.2,47.3z M46.5,78.7
	c-0.1-0.1-0.3-0.2-0.4-0.4c-0.3-0.4-0.5-0.9-0.5-1.4c0-0.5,0.2-1,0.5-1.4c0.1-0.1,0.2-0.3,0.4-0.4c1.1-0.9,2.7-0.9,3.9-0.1
	c1.7,1.3,3.6,2.4,5.6,3.2c1.7,0.7,3.6,1,5.5,1c1.9,0,3.8-0.4,5.5-1.1c2-0.8,4-1.9,5.8-3.2c1.2-0.8,2.8-0.7,3.9,0.2
	c0.1,0.1,0.3,0.3,0.4,0.4c0.3,0.4,0.4,0.9,0.4,1.4c0,0.5-0.2,1-0.6,1.3c-0.1,0.1-0.3,0.3-0.4,0.4c-2.2,1.7-4.7,3-7.3,4
	c-2.4,0.9-5,1.4-7.5,1.4c-2.6,0-5.1-0.4-7.6-1.3C51.3,81.9,48.8,80.5,46.5,78.7L46.5,78.7L46.5,78.7z M94.3,34.4H28.6
	c-5.6,0-10.2,4.6-10.2,10.2v38.5c0,5.6,4.6,10.2,10.2,10.2h3.2c1.4,0.1,2.5,1.3,2.4,2.8l-1,14.6l19.3-16.6c0.5-0.5,1.1-0.8,1.8-0.8
	h40c5.6,0,10.2-4.6,10.2-10.2V44.6C104.5,39,99.9,34.4,94.3,34.4z"/>
</svg>
